<svg fill="none" viewBox="0 0 24 24" xmlns="http://www.w3.org/2000/svg" id="fi_10486795"><g fill="rgb(0,0,0)"><path d="m4 7c0-2.76142 2.23858-5 5-5 2.7614 0 5 2.23858 5 5s-2.2386 5-5 5c-2.76142 0-5-2.23858-5-5z"></path><path d="m14.6507 11.1324c-.2566.3503-.0849.8676.3493.8676 2.7615 0 5-2.23858 5-5s-2.2385-5-5-5c-.4342 0-.6059.51734-.3493.86761.8484 1.15813 1.3493 2.58676 1.3493 4.13239s-.5009 2.97426-1.3493 4.1324z"></path><path d="m20 22c-.5523 0-1-.4477-1-1v-2c0-1.4997-.4942-2.9714-1.3794-4.1699-.2392-.3239-.0233-.8301.3794-.8301 1.3261 0 2.5979.5268 3.5356 1.4645.9376.9376 1.4644 2.2094 1.4644 3.5355v2c0 .5523-.4477 1-1 1z"></path><path d="m2.46447 15.4645c.93768-.9377 2.20945-1.4645 3.53553-1.4645h6c1.3261 0 2.5979.5268 3.5355 1.4645.9377.9376 1.4645 2.2094 1.4645 3.5355v2c0 .5523-.4477 1-1 1h-14c-.55228 0-1-.4477-1-1v-2c0-1.3261.52678-2.5979 1.46447-3.5355z"></path></g></svg>